<svg xmlns="http://www.w3.org/2000/svg" width="539.245" height="287.96"><path data-name="Path 32" d="M261.057 204.789s219.542-15.452 202.8-80.477c1.932-54.081 37.342-44.424 18.671-90.135S380.805-21.192 342.819 85.039s-121.682-39.917-192.5-14.164-42.331-42.009-9.657-56.012S226.29 84.395 283.59 38.684" fill="none" stroke="#150555" stroke-linecap="round" stroke-width="3" stroke-dasharray="10 10"/><path d="M112.473 250.12l-11.831-9.177a117.381 117.381 0 00-22.824-4.339c.88 5.561 10.187 14.323 10.187 14.323-10.18-8.312-12.429-11.824-15.753-14.559-9.337-.025-17.811 4.385-25.489 7.119 14.04 7.364 17.031 9.933 17.031 9.933-7.959-5-14.951-6.523-20.292-8.695-18.807 7.544-22.2 16.344-22.2 16.344 5.328 3.9 18.225 11.129 23.091 14.06a161.252 161.252 0 0020.624-6.3c-4.576 3.156-12.061 6.135-17.579 8.092 7.149 4.1 6.027 3.363 12.42 5.648 9.8-1.717 24.991-8.831 24.991-8.831-5.195 4.165-14.573 8.345-19.835 10.517a89.428 89.428 0 0032.14 3.481 166.412 166.412 0 0014.309-8.881 61.75 61.75 0 01-9.832 8.493c11.744-1.24 23.619-4.2 36.849-7.408l10.015-5.84-10.641-12.473c-9.169-9.04-20.671-15.06-31.836-18.956l6.455 7.449" fill="#2c158b"/><path d="M119.578 266.341c4.261.725 8.519 1.556 12.744 2.616a69.852 69.852 0 0112.429 4.229l-.069.18a68.92 68.92 0 00-12.445-3.824c-4.219-.924-8.467-1.621-12.716-2.209-8.5-1.2-17.02-1.995-25.541-2.764s-17.053-1.32-25.593-2.459c-4.268-.567-8.539-1.191-12.8-1.964s-8.513-1.673-12.727-2.8l.023-.2c8.529 1.176 17.027 2.105 25.539 2.971 8.511.843 17.031 1.907 25.561 2.855 8.529.969 17.069 1.965 25.6 3.371" fill="#150555"/><path d="M97.958 191.98c.16-19.869 1.444-28.239 0-34.8a110.154 110.154 0 00-35.893-17.341c10.145 22.273 7.637 38.013 7.637 38.013-.543-16.117-8.361-31.705-12.828-39.36a152.565 152.565 0 00-56.871-2.341c2.793 9.881 5.765 18.869 8.916 27.08 13.541 5.981 31.355 10.5 31.355 10.5-8.645-.049-20.689-2.961-29.336-5.417a186.823 186.823 0 0015.707 30.656c13.671 6.648 39.136 11.173 39.136 11.173-10.372.7-25.892-2.369-34.433-4.317a129.057 129.057 0 0036.08 33.627 252.831 252.831 0 0026.085 1.437c-5.711 1.436-13.207 1.981-20.221 2.117 15.6 9.024 33.011 15.933 52.316 23.757l17.9 1.491-1.072-25.824c-4.956-38.723-19.673-63.784-37.872-79.9-4.263 8.016-6.6 29.449-6.6 29.449" fill="#5631ee"/><path d="M139.521 263.85a100.55 100.55 0 00-11.592-16.232c-4.287-5.023-8.827-9.772-13.472-14.385-9.273-9.257-18.961-18-28.675-26.717s-19.651-17.157-29.031-26.372c-4.692-4.6-9.331-9.276-13.813-14.14-4.5-4.844-8.836-9.881-12.917-15.164l.217-.236c9.333 9.252 18.861 18.153 28.473 26.984 9.628 8.8 19.056 17.9 28.608 26.856 9.532 8.981 19.051 18.008 28.16 27.555 4.532 4.8 8.955 9.735 13.119 14.939a102.37 102.37 0 0111.183 16.744l-.26.169m325.17 1.665c13.213 6.917 18.315 10.733 23.247 11.9a96.642 96.642 0 0025.239-20.729c-18.739-.083-28.3-7.331-28.3-7.331 10.975 5.111 24.363 4.636 31.175 3.936a141.287 141.287 0 0023.2-41.443c-7.664-1.305-14.8-2.172-21.483-2.641-9.145 8.013-18.94 19.7-18.94 19.7 3.321-6.4 9.849-14.355 14.779-19.937a135.589 135.589 0 00-26.455 1.18c-9.641 7.88-22.351 25.248-22.351 25.248 3.479-7.944 11.432-18.423 15.981-24.1a104.182 104.182 0 00-36.188 15.3c-5.873 9.024-10.883 18.884-10.883 18.884a89.172 89.172 0 016.277-15.744c-11.963 8.5-23.2 19.068-35.772 30.732l-7.8 12.783 17.659 8.039c27.753 9.567 50.095 7.208 67.785-.8-3.733-5.909-17.164-14.976-17.164-14.976" fill="#2c158b"/><path d="M400.865 271.801a76.233 76.233 0 0015.255-3.056c4.985-1.465 9.885-3.213 14.735-5.087 9.712-3.721 19.24-7.924 28.756-12.16s18.937-8.725 28.66-12.541c4.859-1.911 9.748-3.757 14.7-5.424 4.947-1.683 9.963-3.183 15.044-4.405l.075.241c-9.731 3.767-19.3 7.8-28.857 11.919-9.543 4.14-19.207 8.032-28.823 12.063-9.625 4.007-19.277 7.991-29.12 11.492-4.931 1.723-9.909 3.32-14.971 4.632a76.748 76.748 0 01-15.44 2.579l-.015-.252" fill="#150555"/><path d="M472.78 228.658l20.949-7.745a164.4 164.4 0 0022.452-27.169c-8.116-3.885-26.665.8-26.665.8 18.583-6.284 24.941-6.141 31.035-8.173 6.835-12.713 7.079-28.309 9-41.284-20.121 12.416-25.749 14.145-25.749 14.145 12.509-6.285 19.655-14.427 26.46-19.727 3.56-32.559-5.795-45.233-5.795-45.233-9.115 3.705-28.228 14.683-35.712 18.637-4.208 14.753-6.549 33.9-6.549 33.9-.907-9.131.541-22.067 1.929-31.383-10.72 6-8.908 5.145-16.635 11.777-4.832 14.94-6.336 42.168-6.336 42.168-1.812-10.9-.6-27.513.315-36.679a127.988 127.988 0 00-28.084 40.661c0 13.659 1.509 27.645 1.509 27.645-2-5.917-3.349-13.787-4.252-21.183-6.885 17.156-11.552 36.067-16.881 57.045l.555 19 24.509-3.109c18.825-4.241 35.292-14.423 48.66-26.089l-14.712 1.992" fill="#5631ee"/><path d="M445.813 223.512c-4.076 5.149-8.295 10.2-12.8 14.992a94.5 94.5 0 01-14.736 13.087l-.191-.263a93.777 93.777 0 0014.2-13.479c4.316-4.909 8.344-10.065 12.232-15.324 7.8-10.5 15.075-21.395 22.313-32.316s14.192-22.057 21.945-32.664c3.868-5.305 7.816-10.561 11.96-15.665 4.123-5.119 8.449-10.084 13.036-14.8l.248.209c-7.792 10.561-15.229 21.3-22.591 32.125-7.331 10.837-14.965 21.487-22.453 32.256-7.512 10.749-15.069 21.489-23.169 31.837" fill="#2c158b"/><g data-name="Rectangle 91" transform="translate(121.702 87.443)" fill="none" stroke="#150555" stroke-width="20"><rect width="306" height="193" rx="15" stroke="none"/><rect x="10" y="10" width="286" height="173" rx="5"/></g><path d="M412.985 263.072H135.798V101.127h277.187v161.941" fill="#fff"/><path d="M135.798 115.161l138.594 93.546 138.593-93.545 2.093-13.529-140.781 95.58-138.499-96.086v14.031" fill="#bbbcbd"/><path d="M274.298 200.897l-142.495-96.742 3.425-5.045 139.07 94.417L413.367 99.11l3.425 5.045-142.494 96.742" fill="#150555"/><path d="M135.229 257.927l-3.425-5.045 114.446-77.7 3.427 5.045-114.448 77.7m278.138 0l-112.612-76.459 3.427-5.044 112.61 76.453-3.425 5.045" fill="#150555"/><g><path d="M319.944 6.185l-50.64 30.383 11.753 18.089z" fill="#150555"/><path d="M319.944 6.185l-39.948 32.059 1.061 16.413z" fill="#2c158b"/><path d="M319.944 6.185l-68.157 24.242 17.517 6.141zm0 0l-39.948 32.059 21.484 5.815z" fill="#5631ee"/></g></svg>