<svg xmlns="http://www.w3.org/2000/svg" width="729.679" height="607.262"><defs><filter id="b" x="467.605" y="50.624" width="233.158" height="266.313" filterUnits="userSpaceOnUse"><feOffset dx="20" dy="20"/><feGaussianBlur stdDeviation="7.5" result="blur-2"/><feFlood flood-opacity=".161"/><feComposite operator="in" in2="blur-2"/><feComposite in="SourceGraphic"/></filter><filter id="g" x="139.076" y="125.491" width="29.314" height="64.64" filterUnits="userSpaceOnUse"><feOffset dy="20"/><feGaussianBlur stdDeviation="3" result="blur-7"/><feFlood flood-opacity=".161"/><feComposite operator="in" in2="blur-7"/><feComposite in="SourceGraphic"/></filter><filter id="c" x="106.548" y="90.982" width="32.991" height="101.411" filterUnits="userSpaceOnUse"><feOffset dy="20"/><feGaussianBlur stdDeviation="3" result="blur-3"/><feFlood flood-opacity=".161"/><feComposite operator="in" in2="blur-3"/><feComposite in="SourceGraphic"/></filter><filter id="d" x="59.311" y="71.182" width="112.474" height="153.456" filterUnits="userSpaceOnUse"><feOffset dy="20"/><feGaussianBlur stdDeviation="3" result="blur-4"/><feFlood flood-opacity=".161"/><feComposite operator="in" in2="blur-4"/><feComposite in="SourceGraphic"/></filter><filter id="e" x="130.025" y="71.182" width="30.086" height="155.719" filterUnits="userSpaceOnUse"><feOffset dy="20"/><feGaussianBlur stdDeviation="3" result="blur-5"/><feFlood flood-opacity=".161"/><feComposite operator="in" in2="blur-5"/><feComposite in="SourceGraphic"/></filter><filter id="f" x="133.985" y="79.102" width="68.348" height="139.879" filterUnits="userSpaceOnUse"><feOffset dy="20"/><feGaussianBlur stdDeviation="3" result="blur-6"/><feFlood flood-opacity=".161"/><feComposite operator="in" in2="blur-6"/><feComposite in="SourceGraphic"/></filter><filter id="a" x="474.414" y="86.221" width="235.54" height="269.115" filterUnits="userSpaceOnUse"><feOffset dx="10" dy="10"/><feGaussianBlur stdDeviation="7.5" result="blur"/><feFlood flood-opacity=".161"/><feComposite operator="in" in2="blur"/><feComposite in="SourceGraphic"/></filter><filter id="h" x="168.493" y="97.771" width="56.468" height="130.262" filterUnits="userSpaceOnUse"><feOffset dy="20"/><feGaussianBlur stdDeviation="3" result="blur-8"/><feFlood flood-opacity=".161"/><feComposite operator="in" in2="blur-8"/><feComposite in="SourceGraphic"/></filter><filter id="i" x="160.007" y="82.497" width="70.611" height="151.759" filterUnits="userSpaceOnUse"><feOffset dy="20"/><feGaussianBlur stdDeviation="3" result="blur-9"/><feFlood flood-opacity=".161"/><feComposite operator="in" in2="blur-9"/><feComposite in="SourceGraphic"/></filter><filter id="j" x="195.647" y="103.428" width="80.793" height="142.142" filterUnits="userSpaceOnUse"><feOffset dy="20"/><feGaussianBlur stdDeviation="3" result="blur-10"/><feFlood flood-opacity=".161"/><feComposite operator="in" in2="blur-10"/><feComposite in="SourceGraphic"/></filter><filter id="k" x="187.728" y="73.445" width="50.811" height="153.456" filterUnits="userSpaceOnUse"><feOffset dy="20"/><feGaussianBlur stdDeviation="3" result="blur-11"/><feFlood flood-opacity=".161"/><feComposite operator="in" in2="blur-11"/><feComposite in="SourceGraphic"/></filter><filter id="l" x="0" y="160.941" width="302.223" height="221.894" filterUnits="userSpaceOnUse"><feOffset dy="3"/><feGaussianBlur stdDeviation="10" result="blur-12"/><feFlood flood-opacity=".161"/><feComposite operator="in" in2="blur-12"/><feComposite in="SourceGraphic"/></filter><filter id="m" x="277.426" y="149.858" width="121.148" height="99.899" filterUnits="userSpaceOnUse"><feOffset dx="5" dy="5"/><feGaussianBlur stdDeviation="5" result="blur-13"/><feFlood flood-opacity=".161"/><feComposite operator="in" in2="blur-13"/><feComposite in="SourceGraphic"/></filter></defs><path d="M130.423 76.03c-41.822 75.281-88.888 185.155-57.081 296.476S21.867 563.121 103.905 602.53s234.918-183.842 360.955-61.291 331.141-141.262 243.8-284S602.601 72.495 489.511 76.03 341.031-42.779 296.568 16.003 172.245.749 130.423 76.03z" fill="#150555"/><g transform="translate(.005 -.002)" filter="url(#a)"><path data-name="path170" d="M486.684 285.952l141.175 37.841 50.186-187.232L536.87 98.72z" fill="#f8fcfc"/></g><path d="M529.498 179.997l19.628 5.262 14.164-52.83-19.628-5.262z" fill="#f0a510"/><path d="M560.944 188.42l19.629 5.263 8.591-32.044-19.628-5.263z" fill="#f14a20"/><path d="M593.004 197.013l19.632 5.264 11.595-43.247-19.632-5.264z" fill="#89d348"/><path d="M623.599 205.212l19.632 5.264 14.497-54.07-19.632-5.264z" fill="#32958b"/><path d="M524.401 199.045l114.296 30.645.938-3.498-114.296-30.645zm-3.991 14.901l114.295 30.645.938-3.498-114.296-30.645z" fill="#007bff"/><path d="M516.407 228.88l68.973 18.493.937-3.497-68.972-18.493z" fill="#4898d3"/><path d="M509.516 254.597l113.742 30.496.938-3.498-113.742-30.496zm-4.688 17.499l88.893 23.834.938-3.498-88.893-23.834z" fill="#007bff"/><g transform="translate(-.004 .001)" filter="url(#b)"><path data-name="path170" d="M469.881 238.012l139.41 37.367 49.56-184.891L519.44 53.12z" fill="#f8fcfc"/></g><path data-name="path172" d="M512.156 133.384l19.382 5.197 13.988-52.17-19.383-5.196z" fill="#f0a510"/><path data-name="path174" d="M543.21 141.702l19.383 5.197 8.484-31.643-19.383-5.197z" fill="#f14a20"/><path data-name="path176" d="M574.874 150.185l19.386 5.198 4.243-15.822-19.387-5.198z" fill="#4898d3"/><path data-name="path178" d="M605.09 158.28l19.387 5.197 2.12-7.91-19.386-5.198z" fill="#326195"/><path data-name="path180" d="M507.124 152.194l112.867 30.262.926-3.454L508.05 148.74z" fill="#007bff"/><path data-name="path182" d="M503.18 166.91l96.214 25.796.927-3.455-96.214-25.796z" fill="#007bff"/><path data-name="path184" d="M499.23 181.657l68.112 18.262.926-3.454-68.112-18.262z" fill="#007bff"/><path data-name="path186" d="M492.425 207.051l112.32 30.115.926-3.454-112.32-30.115z" fill="#007bff"/><path data-name="path188" d="M487.795 224.331l64.142 17.198.926-3.454-64.142-17.198z" fill="#007bff"/><g><g filter="url(#c)" transform="translate(.001)"><path data-name="Path 5" d="M115.546 150.947l14.991-59.965v72.411z" fill="#b0d2f9"/></g><g filter="url(#d)" transform="translate(.001)"><path data-name="Path 3" d="M68.31 71.182l48.651 124.456h45.822z" fill="#b0d2f9"/></g><g filter="url(#e)" transform="translate(.001)"><path data-name="Path 4" d="M151.11 71.182l-12.086 126.719h12.086z" fill="#b0d2f9"/></g><g filter="url(#f)" transform="translate(.001)"><path data-name="Path 6" d="M193.332 79.102l-50.348 110.879h31.114z" fill="#b0d2f9"/></g><g filter="url(#g)" transform="translate(.001)"><path data-name="Path 10" d="M148.075 143.876l11.314-18.386-11.314 35.64z" fill="#b0d2f9"/></g><g filter="url(#h)" transform="translate(.001)"><path data-name="Path 7" d="M200.12 199.033l15.84-101.262-38.468 101.262z" fill="#b0d2f9"/></g><g filter="url(#i)" transform="translate(.001)"><path data-name="Path 8" d="M221.617 205.255L169.006 82.496 192.2 205.255z" fill="#b0d2f9"/></g><g filter="url(#j)" transform="translate(.001)"><path data-name="Path 9" d="M204.646 216.57l62.793-113.142-38.468 113.142z" fill="#b0d2f9"/></g><g filter="url(#k)" transform="translate(.001)"><path data-name="Path 11" d="M229.54 197.901h-19.8L196.729 73.445z" fill="#b0d2f9"/></g><g filter="url(#l)" transform="translate(.001)"><path data-name="flowerpot" d="M93.563 187.94l-63.564 63.564 34.511 34.51v28.079l35.741 35.741h108.152l63.82-63.82h-27.614s14.143-69.789 14.143-71.486-26.588-26.588-26.588-26.588z" fill="#e4edfc"/></g></g><g data-name="Group 1"><path d="M530.948 331.2l-2.7-14.281-3.755-5.481c-1.395-2.037-1.7-6.845.353-8.22 10.52-7.049 40.951-24.664 46.583-26.292 0 0 1.5 6.031-2.292 8.271s-23.837 25.34-23.837 25.34l.94 12.5-15.288 8.167" fill="#f2d264"/><path d="M561.222 278.735c-2.58.884-5.1 1.769-6.625 2.365l-27.026 16.659-7.06-4.807-3.247 1.872 3.455 7.5s4.328 12.276 5.129 12.665a22.269 22.269 0 016.044-11.919c4.927-3.551 19.813-15.995 25.805-6.527 5.257-4.155 14.817-13.2 17.655-18.772 0 0-2.239-2.6-5-2.093 0 0-4.66 1.525-9.135 3.059m-13.402 42.091l41.405 113.68s-15.056 18.906-35.572 13.209l-25.166-118.028 19.333-8.856" fill="#4359b1"/><path d="M631.208 327.171l7.281-12.58.732-6.6c.275-2.455 3.181-6.295 5.635-6 12.571 1.525 47.121 8.045 52.451 10.488 0 0-2.8 5.549-7.136 4.769s-34.605 3.633-34.605 3.633l-7.444 10.08-16.913-3.792" fill="#f2d264"/><path d="M419.063 400.446c10.411-7.751 20.505-16.5 33.136-16.5 14.711 0 27.024 8.754 43.974 20.006 37.483-5.471 78.209 16.656 82.116 13.8 23.776-52.293 43.993-79.79 50.286-91.68 0 0 18.968.545 22.553 6.569-25.377 43.748-30.509 112.37-67.252 117.775-27.666 4.073-163.234 3.535-169.909-4.768l5.1-45.2" fill="#4a6abc"/><path d="M642.31 298.615s-4.735 12.125-4.38 12.944a22.265 22.265 0 0112.359-5.084c6.048.527 25.449.816 23.809 11.9 6.695.284 19.843-.329 25.627-2.7 0 0 0-3.429-2.417-4.848 0 0-11.253-4.689-15.48-6.179l-31.347-5.02-2.211-8.251-3.683-.7-2.277 7.933m-428.094-2.637c-9.9.012-30.964 44.8 35.892 67.888 22.828 7.885 65.268-3.691 73.552-16.752 0 0-39.368-83.628-76.985-78.5-31.4 4.277-32.459 27.368-32.459 27.368" fill="#4359b1"/><path d="M221.395 298.517c8.02 11.871 1.8 36.74 26.257 38.848a21.169 21.169 0 009.428-1.284s7.605 12.491 13.657 15.385c8.663.057 7.456-6.727 13.219-12.485 0 0-5.683-10.725-7.948-15.159 0 0-2.259-24.456-10.637-34.589-10.219-12.36-19.2-15.641-31.02-11.9s-16.659 15.7-12.956 21.181m-50.96 128.859l12.6-8.755 17.075 2.018 57.513-14.094 2.577 16.912-57.765 3.785-6.145 1.619a7.653 7.653 0 01-5.341-.543l-7.887-3.908-11.131 6.956-1.5-3.99" fill="#f2d264"/><path d="M287.417 338.642c-13.26 2.2-13.633 25.914-25.388 64.407l-56.134 11.521 3.554 13.619s61.189-2.956 70.471-4.836 29.9-88.426 7.5-84.707" fill="#f0383f"/><path d="M291.446 333.821c-7.489 0-9.684.819-14.668 5.459a16.682 16.682 0 00-2.748 3.429l-.036-.056c-10.831 31.173-13.971 73.944 19.167 88.709 6.5 2.895 24.952 8.65 44.172 10.133 39.377 3.04 80.217 7.805 80.217 7.805 3.232-3.321 2.1-49 2.1-49-70.683 0-107.24-66.48-128.206-66.48" fill="#f0383f"/><path d="M193.331 443.177l11.889-8.267a6.188 6.188 0 014.656-.591l14.924 4.02 62.812-10.557.106 19.507-61.518-1.149-6.6.973a7.369 7.369 0 01-5.447-1.363l-7.575-5.531L194 446.537l-.672-3.36" fill="#f2d264"/><path data-name="path170" d="M276.829 338.965c4.7-4.373 6.764-5.144 13.823-5.144 19.76 0 17.937 34.239 33.876 90.745 1.616 5.727 11.249 21.739-5.071 23.249s-81.873 3.221-81.873 3.221l-7.076-18.589 57.073-10.007s-29.643-65.884-10.752-83.476" fill="#f0414c"/><path data-name="path172" d="M280.709 335.825c-21.639 6.6-18.271-15.226-18.271-15.226 8.165 1.892 6.161-18.168-2.173-19.345-5.312-.749-4.227 7.476-4.227 7.476-11.069 10.412-22.608-20.423-41.823-12.757-.823-12.676 11.132-25.72 21.832-31.911 10.727-6.209 22.881-7.509 32.037-1.852 7.773 4.8 7.633 15.235 15.9 19.385 8.208 4.121 18.14.82 27.3-1.589 9.233-2.429 20.592-3.267 26.672 4.148 3.849 4.693 4.34 11.479 3.355 17.629-.729 4.557-2.055 9.685.548 13.412 2.564 3.673 7.744 4.3 12.215 3.837 8.537-.885 10.085-2.656 26.493-5.725 14.709-2.751 30.811-2.476 44.152 4.824 13.509 7.392 20.128 20.489 19.372 38.172-.427 9.976-8.273 26.59-26.16 37.176-8.479 5.019-45.2 24.067-84.763.836-20.195-11.858-15.552-29.065-21.885-43.155-7.793-17.34-16.247-19.709-30.577-15.336" fill="#4a6abc"/><path data-name="path174" d="M270.333 306.157a11.848 11.848 0 00-11.848-11.849 11.85 11.85 0 00-11.849 11.849 11.85 11.85 0 0011.849 11.849 11.848 11.848 0 0011.848-11.849" fill="#f0383f"/><path data-name="path176" d="M224.807 281.332c18.435.617 27.677 8.011 36.207 22.188l-4.975 5.211s-7.457-25.139-32.352-25.536l1.12-1.863" fill="#d3d4d3"/><path data-name="path178" d="M265.033 306.157a6.548 6.548 0 00-6.548-6.548 6.548 6.548 0 00-6.548 6.548 6.547 6.547 0 006.548 6.548 6.548 6.548 0 006.548-6.548" fill="#d3d4d3"/><path data-name="path180" d="M197.652 445.889H99.339l-17.016-54.555a7.114 7.114 0 016.791-9.233h83.409a7.113 7.113 0 016.791 5l18.338 58.788" fill="#4a6abc"/><path data-name="path182" d="M248.256 451.61H103.623a4.285 4.285 0 01-4.284-4.285v-1.436h148.917a1.952 1.952 0 011.951 1.951v1.821a1.952 1.952 0 01-1.951 1.951" fill="#1b1e45"/><path data-name="path184" d="M194.625 451.61H103.71a4.371 4.371 0 01-4.371-4.371v-1.35h98.313v2.7a3.027 3.027 0 01-3.027 3.027" fill="#4359b1"/><path data-name="path186" d="M134.552 407.61a4.362 4.362 0 00-.636.076c-.032 3.227-2.043 5.85-4.629 6.229 0 .028-.007.052-.007.079 0 3.525 2.36 6.384 5.272 6.384s5.271-2.859 5.271-6.384-2.36-6.384-5.271-6.384" fill="#4359b1"/></g><g><g transform="translate(-.003 -.002)" filter="url(#m)"><path data-name="messageBox" d="M295.251 229.76v-15.324h-2.821a5 5 0 01-5-5V164.86a5 5 0 015-5h81.147a5 5 0 015 5v44.576a5 5 0 01-5 5h-61.133l-17.192 15.324z" fill="#fff"/></g><path fill="#e0e0e0" d="M293 169.69h57v5h-57zm0 9h59v6h-59zm0 10h65v6h-65zm0 10h40v5h-40z"/></g></svg>