<svg xmlns="http://www.w3.org/2000/svg" width="382" height="172.615"><defs><linearGradient id="b" x1=".5" x2=".5" y2="1" gradientUnits="objectBoundingBox"><stop offset="0" stop-color="#fba043"/><stop offset="1" stop-color="#e74c4a"/></linearGradient><linearGradient id="k" x1=".92" y1=".913" x2=".064" y2=".24" gradientUnits="objectBoundingBox"><stop offset="0" stop-color="#e74c4a"/><stop offset="1" stop-color="#7e37d6"/></linearGradient><linearGradient id="d" x1=".087" y1=".2" x2=".527" y2=".5" gradientUnits="objectBoundingBox"><stop offset="0" stop-color="#e74c4a"/><stop offset="1" stop-color="#fba043"/></linearGradient><linearGradient id="j" x1=".846" y1=".241" x2=".046" y2=".737" gradientUnits="objectBoundingBox"><stop offset="0" stop-color="#dc4a58"/><stop offset="1" stop-color="#fe9331"/></linearGradient><linearGradient id="h" x1=".021" y1=".543" x2=".881" y2=".262" gradientUnits="objectBoundingBox"><stop offset="0" stop-color="#fb6f43"/><stop offset="1" stop-color="#ce4ae7"/></linearGradient><filter id="a" x="18.134" y="3.441" width="42.289" height="98.65" filterUnits="userSpaceOnUse"><feOffset dy="3"/><feGaussianBlur stdDeviation="3" result="blur"/><feFlood flood-opacity=".161"/><feComposite operator="in" in2="blur"/><feComposite in="SourceGraphic"/></filter><filter id="g" x="18.541" y="52.73" width="123.952" height="63.491" filterUnits="userSpaceOnUse"><feOffset dy="3"/><feGaussianBlur stdDeviation="3" result="blur-4"/><feFlood flood-opacity=".161"/><feComposite operator="in" in2="blur-4"/><feComposite in="SourceGraphic"/></filter><filter id="c" x="29.563" y="2.369" width="103.278" height="48.558" filterUnits="userSpaceOnUse"><feOffset dx="-2" dy="2"/><feGaussianBlur stdDeviation="3" result="blur-2"/><feFlood flood-opacity=".161"/><feComposite operator="in" in2="blur-2"/><feComposite in="SourceGraphic"/></filter><filter id="i" x="145.416" y="75.349" width="213.849" height="97.267" filterUnits="userSpaceOnUse"><feOffset dy="3"/><feGaussianBlur stdDeviation="3" result="blur-5"/><feFlood flood-opacity=".161"/><feComposite operator="in" in2="blur-5"/><feComposite in="SourceGraphic"/></filter><filter id="e" x="14.221" y="60.259" width="128.489" height="108.296" filterUnits="userSpaceOnUse"><feOffset dy="3"/><feGaussianBlur stdDeviation="3" result="blur-3"/><feFlood flood-opacity=".161"/><feComposite operator="in" in2="blur-3"/><feComposite in="SourceGraphic"/></filter><radialGradient id="f" cx=".577" cy=".647" r=".759" gradientTransform="matrix(.415 -.861 .704 .508 -.118 .815)" gradientUnits="objectBoundingBox"><stop offset="0" stop-color="#fb26b4"/><stop offset="1" stop-color="#7338d9"/></radialGradient></defs><path data-name="Rectangle 1" fill="none" d="M0 0h382v168H0z"/><g filter="url(#a)"><path data-name="Path 3" d="M308.134 260.471l13.626-78.03 10.663 30.473-9.087 50.177z" transform="translate(-281 -173)" fill="url(#b)"/></g><g filter="url(#c)"><path data-name="Path 2" d="M321.672 182.369h84.664s3.441 23.986-7.648 30.486c-.033.2-66.317-.1-66.405 0-12.56-12.355-10.611-30.486-10.611-30.486z" transform="translate(-281 -173)" fill="url(#d)"/></g><g filter="url(#e)"><path data-name="Path 5" d="M305.708 282.676l18.889-4.142s-20.463 37.072 17.232 37.447c78.539.828 58.656-87.653-8.45-63.461 53.519-37.944 80.041 17.6 80.041 17.6s16.725 62.923-70.265 59.278c-50.372-1.984-37.447-46.722-37.447-46.722z" transform="translate(-281 -173)" fill="url(#f)"/></g><g filter="url(#g)"><path data-name="Path 4" d="M324.765 264.546c14.655-23.4 68.315-40.475 89.728 12.675-6.5-67.17-91.515-48.561-105.952-16.7.084.24 15.967 3.699 16.224 4.025z" transform="translate(-281 -173)" fill="url(#h)"/></g><g filter="url(#i)"><path data-name="Path 7" d="M23.592-62.651v56.363h25.749V0H5.416v-62.651zm75.5 61A33 33 0 0187.115.734q-8.629 0-10.648-5.37-4.177 5.6-12.026 5.6Q49.8.964 49.8-12.622q0-10.327 13.4-14.5 12.3-3.859 12.3-9.278 0-7.114-7.068-7.114-8.17 0-8.17 6.885a17.688 17.688 0 001.285 5.691l-8.308-1.606a27.5 27.5 0 01-.321-4.039q0-11.016 20.1-11.016 19.094 0 19.094 10.281v28.09q0 4.314 2.8 4.314a5.983 5.983 0 002.57-.964zM75.365-27.814a14.2 14.2 0 01-3.626 2.983q-5.186 3.031-5.186 10.189 0 9.18 3.58 9.18 5.232 0 5.232-9.088zM145.911 0h-16.753v-33.965q0-5.187-2.892-5.187-2.938 0-5.095 4.108a20.607 20.607 0 00-2.157 9.708V0h-16.752v-46.357a119.683 119.683 0 0016.753-1.143v8.675q6.242-8.629 15.238-8.629 11.658 0 11.658 11.842zm39.564-45.807q11.7 5 11.7 14.55 0 6.288-5.875 10.74a22.8 22.8 0 01-14.183 4.452 61.3 61.3 0 01-8.675-.826q-3.167 1.836-3.167 3.672 0 2.524 3.9 2.524 1.01 0 4.085-.184 7.757-.5 11.291-.5 16.707 0 16.707 12.668 0 15.33-27.677 15.33-20.608 0-20.608-8.675 0-5 8.354-6.793-8.9-2.341-8.9-7.757 0-6.747 10.6-11.888-9.317-3.764-9.317-12.806a14.4 14.4 0 015.646-11.543 21.264 21.264 0 0114-4.659 61.375 61.375 0 017.481.6 18.973 18.973 0 01-.229-2.524q0-9.088 9.5-9.088 7.573 0 7.573 6.38 0 4.865-4.544 4.865a8.42 8.42 0 01-3.58-1.01 5.871 5.871 0 00-1.928-.688q-2.153-.144-2.153 3.16zm-10.327 2.846q-4.682 0-4.682 11.658 0 10.694 4.865 10.694 4.452 0 4.452-9.5.001-12.852-4.635-12.852zm-.459 45.99q-11.7 0-11.7 4.544 0 4.5 11.337 4.5 13.173 0 13.173-5.049.001-3.995-12.81-3.995z" transform="translate(149 144)" fill="url(#j)"/></g><path data-name="Path 6" d="M73.988-62.651L56.914 0H45.072l-8.72-34.194L27.493 0H15.651L-.5-62.651h18.263l9.5 38 9.5-38h10.696l9.363 38.141 10.006-38.141zm37.132 45.714l6.747 1.974q-1.055 16.019-18.91 16.019-23.133 0-23.133-23.087 0-11.2 6.15-18.359a19.822 19.822 0 0115.743-7.16q20.058 0 20.058 25.887H93.357q0 18.176 9.226 18.176 8.629 0 8.629-10.281 0-1.378-.092-3.169zm-17.808-9.914h10.006q0-16.156-4.865-16.156-4.406 0-4.957 11.979zm64.763 9.914l6.747 1.974q-1.056 16.019-18.91 16.019-23.133 0-23.133-23.087 0-11.2 6.15-18.359a19.822 19.822 0 0115.743-7.16q20.058 0 20.058 25.887h-24.418q0 18.176 9.226 18.176 8.629 0 8.629-10.281-.001-1.378-.093-3.169zm-17.809-9.914h10.006q0-16.156-4.865-16.156-4.406 0-4.957 11.979zm72.795-19.415l-9.547 11.979L217.283 0h-17.671l-8.032-20.379-3.08 3.764V0h-16.748v-62.651a157.923 157.923 0 0016.753-1.01v39.2l17.854-21.8z" transform="translate(142 72)" fill="url(#k)"/></svg>