<svg xmlns="http://www.w3.org/2000/svg" width="211" height="211"><g transform="translate(-1749 -1138)"><circle data-name="Ellipse 1" cx="105" cy="105" r="105" transform="translate(1749 1138)" fill="#f5d7a0"/><path data-name="Rectangle 2" fill="#f5b49d" d="M1844.531 1212h31v34h-31z"/><path data-name="Path 8" d="M1783.831 1326.123c0-2.154 10.158-59.714 14.962-66.011s45.4-25.517 45.4-25.517c17.4 13.089 18.391 8.615 32.145 0 0 0 40.1 17.4 44.075 23.2s9.279 61.307 9.279 61.307c-72.078 61.798-145.861 7.021-145.861 7.021z" fill="#090ad8"/><path data-name="Line 2" fill="none" stroke="#484af5" stroke-linecap="round" stroke-width="2" d="M1814.77 1275.5l-12 62"/><path data-name="Line 3" fill="none" stroke="#484af5" stroke-linecap="round" stroke-width="2" d="M1904.261 1274.5l7 59"/><ellipse data-name="Ellipse 3" cx="3.5" cy="7" rx="3.5" ry="7" transform="translate(1835.423 1194)" fill="#f5b49d"/><ellipse data-name="Ellipse 4" cx="3.5" cy="7" rx="3.5" ry="7" transform="translate(1877.63 1200)" fill="#f5b49d"/><ellipse data-name="Ellipse 2" cx="21.5" cy="28" rx="21.5" ry="28" transform="translate(1838.533 1174)" fill="#e9a086"/><path data-name="Path 10" d="M1840.98 1177.216c-.765 1.784-1.689 13.958.528 16.064s3.271-2.176 4.45-6.637 21.123-1.068 20.74-5.656 6.8.281 8.07 1.81 2.07 10.266 3.7 14.631 3.364 3.734 3.364 3.734 4.334-21.066 3.952-27.567-6.939-2.338-6.939-2.338c-22.055-18.225-37.096 4.175-37.865 5.959z" fill="#090ad8"/><path data-name="Exclusion 1" d="M1960 1349h-211v-105.932c.307 57.313 47.633 103.941 105.5 103.941 58.172 0 105.5-46.88 105.5-104.5 0-57.325-47.071-104.209-104.931-104.509H1960v104.5zm-211-107.059V1138h104.933c-57.556.3-104.633 46.929-104.933 103.941z" fill="#fff"/><path data-name="Path 14" d="M1844.188 1234.578s8.5 32.984 16.69 32.984 15.372-33 15.372-33c-15.555 10.009-20.272 8.625-32.062.016z" fill="#fff"/><circle data-name="Ellipse 6" cx="1.5" cy="1.5" r="1.5" transform="translate(1859 1245)" fill="#212121"/><circle data-name="Ellipse 7" cx="1.5" cy="1.5" r="1.5" transform="translate(1859 1251)" fill="#212121"/><circle data-name="Ellipse 8" cx="1.5" cy="1.5" r="1.5" transform="translate(1859 1257)" fill="#212121"/></g></svg>