<svg xmlns="http://www.w3.org/2000/svg" width="211" height="211"><defs><linearGradient id="a" x1=".5" y1=".706" x2=".558" y2=".933" gradientUnits="objectBoundingBox"><stop offset="0" stop-color="#ef9675"/><stop offset="1" stop-color="#e9b7a6"/></linearGradient></defs><g transform="translate(-1749 -1138)"><circle data-name="Ellipse 1" cx="105" cy="105" r="105" transform="translate(1749 1138)" fill="#f5d7a0"/><path data-name="Path 24" d="M1835 1205h45l-1.63 38.042-39.142 5.2z" fill="#f60001"/><path data-name="Path 15" d="M1795.993 1342.144s-1.68-36.123 1.96-58.525c2.8-42 39.764-40.884 46.484-47.885-.195 12.245 5.723 14.624 10.944 14.45s7.806-2.31 10.243-12.227c46.9 14.53 38.237 28.678 45.739 45.662 4.607 21.381 1.68 58.525 1.68 58.525-28.843 14.631-117.05 0-117.05 0z" fill="#04014b"/><ellipse data-name="Ellipse 10" cx="11" cy="11.5" rx="11" ry="11.5" transform="translate(1844 1227)" fill="#f5b49d"/><path data-name="Path 16" d="M1811.474 1258.319s7.157 4.608 2.059 14.8 4.314 25.394 4.314 25.394" fill="none" stroke="#191494" stroke-linecap="round" stroke-width="2"/><path data-name="Path 17" d="M1837.456 1261.261c7.942 3.628 9.8 11.349 19.707 14.511 7.971 2.545 15.785-5.883 19.9-1.863" fill="none" stroke="#191494" stroke-linecap="round" stroke-width="2"/><path data-name="Path 18" d="M1897.263 1261.261s-7.795 1.5-8.334 7.451 6.177 6.226 6.177 16.374-7.648 19.315-7.648 19.315" fill="none" stroke="#191494" stroke-linecap="round" stroke-width="2"/><ellipse data-name="Ellipse 9" cx="6.5" cy="9" rx="6.5" ry="9" transform="translate(1859 1316)" fill="#191494"/><path data-name="Path 21" d="M1859.967 1321.413s-22.289 4.019-32.412 3.186-9.608-6.667-9.608-6.667" fill="none" stroke="#191494" stroke-linecap="round" stroke-width="2"/><path data-name="Path 20" d="M1826.113 1288.939l2.039 29.062 35.943 2.549 17.717-8.412 2.294-23.2z" fill="#f60001"/><path data-name="Path 19" d="M1860.806 1320.5c-.151.83 3.961 11.515 5.128 11.992s18.176-13.425 18.176-13.425 1.71-1.4 1.433-2.791-1.881-1.843-2.372-2.917-1.169-3.284-1.169-3.284 2.125-2.949 1.785-5.287-.618-3.124-1.563-2.163-.493 4.339-2.831 6.111-3.474 2.359-5.7.549-1.652-5.623-2.331-7.641-2.37-.751-2.174.98a26.468 26.468 0 01-1.9 12.067 11.568 11.568 0 01-6.482 5.809z" fill="#e6b284"/><path data-name="Path 22" d="M1869.449 1301.828s0 1.016 1.2.853.183-1.625.183-1.625c-.311-.34-1.363-.081-1.383.772z" fill="url(#a)"/><ellipse data-name="Ellipse 11" cx="2.982" cy="5.964" rx="2.982" ry="5.964" transform="translate(1834.064 1206.184)" fill="#f5b49d"/><ellipse data-name="Ellipse 12" cx="2.982" cy="5.964" rx="2.982" ry="5.964" transform="translate(1870.025 1211.296)" fill="#f5b49d"/><ellipse data-name="Ellipse 13" cx="18.318" cy="23.856" rx="18.318" ry="23.856" transform="translate(1836.714 1189.144)" fill="#e9a086"/><path data-name="Path 23" d="M1799.024 1214.4c.167 5.8 39.358 24.618 39.358 24.618s5.034-6.814 2.83-6.06.365.405-4.343-10.421c0 0 17.444-7.109 26.871-30.173-4.3 15.823 7.249 29.291 7.249 29.291l7.129 4.476.257 16.325s26.458-.761 27.714-3.839-8.05-68.834-52.846-72.847c-26.766-6.058-54.386 42.83-54.219 48.63z" fill="#f60001"/><path data-name="Exclusion 1" d="M1960 1349h-211v-105.932c.307 57.313 47.633 103.941 105.5 103.941 58.172 0 105.5-46.88 105.5-104.5 0-57.325-47.071-104.209-104.931-104.509H1960v104.5zm-211-107.059V1138h104.933c-57.556.3-104.633 46.929-104.933 103.941z" fill="#fff"/></g></svg>