<svg xmlns="http://www.w3.org/2000/svg" width="211" height="211"><g transform="translate(-1749 -1138)"><circle data-name="Ellipse 1" cx="105" cy="105" r="105" transform="translate(1749 1138)" fill="#f5d7a0"/><path data-name="Rectangle 2" fill="#f5b49d" d="M1844.531 1212h31v34h-31z"/><path data-name="Path 8" d="M1783.831 1326.123c0-2.154 10.158-59.714 14.962-66.011s45.4-25.517 45.4-25.517c17.4 13.089 18.391 8.615 32.145 0 0 0 40.1 17.4 44.075 23.2s9.279 61.307 9.279 61.307c-72.078 61.798-145.861 7.021-145.861 7.021z" fill="#f60001"/><path data-name="Path 9" d="M1811.482 1250.984c10.7 2.613 3.18 54.576 3.18 54.576l12.381-62.975z" fill="#02024d"/><path data-name="Line 2" fill="none" stroke="#c91a1b" stroke-linecap="round" stroke-width="2" d="M1814.77 1275.5l-12 62"/><path data-name="Line 3" fill="none" stroke="#c91a1b" stroke-linecap="round" stroke-width="2" d="M1904.261 1274.5l7 59"/><ellipse data-name="Ellipse 3" cx="3.5" cy="7" rx="3.5" ry="7" transform="translate(1835.423 1194)" fill="#f5b49d"/><ellipse data-name="Ellipse 4" cx="3.5" cy="7" rx="3.5" ry="7" transform="translate(1877.63 1200)" fill="#f5b49d"/><ellipse data-name="Ellipse 2" cx="21.5" cy="28" rx="21.5" ry="28" transform="translate(1838.533 1174)" fill="#e9a086"/><path data-name="Path 10" d="M1837.089 1178.22c-.765 1.784 3.441 17.462 4.716 19.629s4.716 1.912 4.716 1.912a20.934 20.934 0 010-9.177c1.179-4.461 4.844-2.294 4.461-6.883s23.07-1.529 24.344 0-.1 13.1 1.529 17.462 4.971 0 4.971 0 6.245-21.158 5.863-27.658-8.667-4.589-8.667-4.589c-22.05-18.227-41.173 7.52-41.933 9.304z" fill="#01034b"/><path data-name="Path 11" d="M1793.52 1278.833l-9.241 43.964s-9.031-.49-6.721-11.481 15.962-32.483 15.962-32.483z" fill="#01034b"/><path data-name="Exclusion 1" d="M1960 1349h-211v-105.932c.307 57.313 47.633 103.941 105.5 103.941 58.172 0 105.5-46.88 105.5-104.5 0-57.325-47.071-104.209-104.931-104.509H1960v104.5zm-211-107.059V1138h104.933c-57.556.3-104.633 46.929-104.933 103.941z" fill="#fff"/></g></svg>