<svg version="1" xmlns="http://www.w3.org/2000/svg" width="682.667" height="682.667" viewBox="0 0 512.000000 512.000000"><path d="M.2 125.2l.3 125.3.2-124.7L1 1 125.8.7 250.5.5 125.3.2 0 0l.2 125.2zM386.2.7L511 1l.3 125.3.2 125.2.3-125.8L512 0 386.8.2 261.5.5l124.7.2z"/><path d="M153 55.4c0 .7-.6 1.9-1.4 2.5-1.7 1.4-2.4 4.9-3.2 16.6-.3 4.9-7.6 49-16.1 98-8.5 49-15.8 91.1-16 93.6-.8 7.1.7 7.9 21 12.2 22.2 4.7 23.1 4.7 27.1-.1 1.7-2 7.6-8.2 13.1-13.7 8.3-8.3 11.5-10.9 19-14.7 16.6-8.4 27.1-10.8 48.5-10.8 25.7 0 45.5 5.4 63 17.3 5.8 4 18.3 16 22.5 21.7 10.8 14.7 17.8 38.5 16 54.4-.9 7.5-4.8 21.3-7.7 26.9-15.5 30.6-48.5 51.1-92.8 57.6-12.9 1.9-35.5 2.9-46.3 2.1-12.9-1.1-21.2-3.1-30.4-7.7-8.7-4.2-14.3-10-18.6-19.1-3.1-6.6-3.2-7-3.1-20.7 0-12.8.3-14.8 3.1-23.5 3.7-11.6 7.1-21.4 9-25.9.8-1.8 1.1-3.6.8-3.9-.3-.3-11.8 1.9-25.6 4.9-17.7 3.8-25.3 5.9-25.9 7-.5.8-1.6 6.7-2.6 13-3 20.7-.7 44.9 5.8 60.9 13.3 32.4 41.8 50.3 87.6 55.1 14.7 1.5 61.8.6 76.3-1.5 76.3-11 117.8-44 129.5-103.1 1.4-6.9 1.8-14.1 1.9-31v-22l-3.3-10.5c-6.4-20-8.4-25.5-12.7-34.1-6-12.3-11.6-20.1-21.4-30.2-21-21.7-48.4-33.5-84.8-36.8-31.3-2.7-71.9 5.2-103.1 20.1-6 2.8-10.9 4.7-11.4 4.2-.7-.7 9.9-63.3 11.8-69.5 1.5-4.8 1.8-4.8 90.2-4.1 63.4.5 83.7.4 87.1-.5 6.1-1.7 14.3-10.1 18.2-18.6 5.8-12.9 7.3-21.8 7.4-44 0-11-.3-20.8-.7-21.8-.7-1.6-7.2-1.7-116.3-1.7-97.4 0-115.5.2-115.5 1.4z"/><path d="M.2 386.7L0 512l126.8-.2 126.7-.3-126.2-.2L1 511 .7 386.2.5 261.5.2 386.7zM511 386.5V511l-126.2.3-126.3.2 126.8.3 126.7.2V387c0-68.8-.2-125-.5-125s-.5 56-.5 124.5z"/></svg>